# xmcd
#
# Track frame offsets: 
#        150
#        16925
#        30368
#        44663
#        57203
#        70935
#        86338
#        101653
#        119963
#        133263
#        146960
#        161738
#        173588
#        189613
#        203298
#        214230
#        224888
#
# Disc length: 3193 seconds
#
# Revision: 2
# Processed by: cddbd v1.5.2PL0 Copyright (c) Steve Scherf et al.
# Submitted via: ExactAudioCopy v0.99pb5
#
DISCID=070c7711
DTITLE=Nancy Wood - We Never Give Up (Loneliness Is Just A Point Of Vi
DTITLE=ew)
DYEAR=1987
DGENRE=Country
TTITLE0=We Never Give Up
TTITLE1=Ready For The Times To Get Better
TTITLE2=Good And Lonesome
TTITLE3=In The Movies
TTITLE4=Honky-Tonk Lies
TTITLE5=I'll Find It Where I Can
TTITLE6=Sentimental Ol' You
TTITLE7=Blue Bayou
TTITLE8=Loneliness Is Just A Point Of View
TTITLE9=Love In Your Eyes
TTITLE10=Don't Light The Fire
TTITLE11=I Just Want To Be With You
TTITLE12=I Hate Love
TTITLE13=I Don't Feel Like A Movie Tonight
TTITLE14=All Time Low
TTITLE15=Shoppin' For Love
TTITLE16=I'll Be The Last To Know
EXTD=
EXTT0=
EXTT1=
EXTT2=
EXTT3=
EXTT4=
EXTT5=
EXTT6=
EXTT7=
EXTT8=
EXTT9=
EXTT10=
EXTT11=
EXTT12=
EXTT13=
EXTT14=
EXTT15=
EXTT16=
PLAYORDER=
